<?xml version="1.0" encoding="utf-8"?>
<!-- Generator: Adobe Illustrator 25.2.0, SVG Export Plug-In . SVG Version: 6.00 Build 0)  -->
<svg version="1.1" id="Calque_1" xmlns="http://www.w3.org/2000/svg" xmlns:xlink="http://www.w3.org/1999/xlink" x="0px" y="0px"
	 viewBox="0 0 1200 230" style="enable-background:new 0 0 1200 230;" xml:space="preserve">
<style type="text/css">
	.st0{fill:#FFFFFF;}
</style>
<g>
	<g>
		<line class="st0" x1="12.9" y1="131.9" x2="12.4" y2="131.5"/>
		<polygon class="st0" points="80.7,62 58.1,75.9 12.4,47.6 12.4,19.6 		"/>
		<line class="st0" x1="12.9" y1="159.9" x2="12.4" y2="160.3"/>
		<line class="st0" x1="12.9" y1="103.9" x2="12.4" y2="104.3"/>
		<polygon class="st0" points="203.1,70.1 203.1,98.1 171.1,117.9 148.5,131.9 125.9,145.9 103.3,159.9 80.7,173.9 58.1,187.9 
			35.5,173.9 12.9,159.9 12.4,159.5 12.4,132.3 12.9,131.9 35.5,145.9 58.1,159.9 80.7,145.9 103.3,131.9 125.9,117.9 148.5,103.9 
					"/>
		<line class="st0" x1="12.4" y1="160.3" x2="12.4" y2="159.5"/>
		<line class="st0" x1="12.4" y1="104.3" x2="12.4" y2="103.6"/>
		<line class="st0" x1="12.4" y1="132.3" x2="12.4" y2="131.5"/>
		<polygon class="st0" points="203.1,126.1 203.1,154.1 193.7,159.9 171.1,173.9 148.5,187.9 125.9,201.9 103.3,215.9 80.7,201.9 
			103.3,187.9 125.9,173.9 148.5,159.9 171.1,145.9 193.7,131.9 		"/>
		<polygon class="st0" points="203.1,14.1 203.1,42.1 125.9,89.9 103.3,103.9 80.7,117.9 58.1,131.9 35.5,117.9 12.9,103.9 
			12.4,103.6 12.4,75.6 35.5,89.9 58.1,103.9 80.7,89.9 103.3,75.9 		"/>
	</g>
	<g>
		<path class="st0" d="M311.8,55.7c-0.7-7.1-5-10.5-13.7-10.5c-8.1,0-12.4,2.9-12.4,8.1c0,4.4,3,6.9,10.7,8.7
			c7.8,1.9,15.4,3.7,20.5,6c6,2.7,10.8,7,10.8,16.7c0,15.2-11.4,21.9-27.6,21.9c-17.1,0-28.9-7.6-29.2-23.1h13.9
			c0.2,7.1,6.1,11.4,15.4,11.4c8.5,0,13.4-3.6,13.4-9.8c0-4.1-2.1-6.9-10.7-8.7c-8.5-1.9-14-3.1-18.9-5.3
			c-7.4-3.3-11.5-8.3-11.5-17.1c0-12.4,8.4-21.2,25.3-21.2c17.5,0,27.2,9.5,27.8,22.7H311.8z"/>
		<path class="st0" d="M384.7,104.4V57.1l-12.9,47.3h-14.3l-12.8-47.1v47.1h-13.4v-69h21.2L364.9,86l12.5-50.6h20.8v69H384.7z"/>
		<path class="st0" d="M451.4,104.4L447,90.2h-25.5l-4.9,14.2h-15.3l24.6-69h16.7l24.3,69H451.4z M434.3,50.9h-0.1l-8.8,27.4h17.6
			L434.3,50.9z"/>
		<path class="st0" d="M510.6,104.4V86.6c0-6.7-2.5-9.3-10.8-9.3h-15.4v27h-14v-69h35c12.8,0,21.2,8.5,21.2,20
			c0,7.4-3.6,13.6-10.3,16c6.1,2,8.4,5.4,8.4,13.5v19.5H510.6z M484.4,47.3v18.4h18.1c7.7,0,10.6-3.8,10.6-9.2
			c0-5.4-2.9-9.3-10.1-9.3H484.4z"/>
		<path class="st0" d="M549.2,104.4v-57h-20.8V35.4h56.1v12.1h-20.9v57H549.2z"/>
		<path class="st0" d="M613.1,104.4v-69h14.5v69H613.1z"/>
		<path class="st0" d="M675.5,104.4L645.9,58v46.4h-13.4v-69h15.3l27.4,44.4V35.4h13.5v69H675.5z"/>
		<path class="st0" d="M712.8,104.4v-57H692V35.4h56.1v12.1h-20.9v57H712.8z"/>
		<path class="st0" d="M751.6,104.4v-69h50.7v12.1h-36.7v14.8h33.8v12.2h-33.8v17.8H804v12.3H751.6z"/>
		<path class="st0" d="M858.3,104.4l-0.3-6.9c-3.3,5.8-11.2,9.3-20.7,9.3c-19.1,0-31.3-17.8-31.3-37c0-20.4,11.6-36.7,34-36.7
			c16.4,0,29.1,9.8,30.2,23.6h-14.6C854.9,50.2,847.9,45,840,45c-11.5,0-19.2,8.9-19.2,25.4c0,11.3,5.7,24.2,19.1,24.2
			c9.5,0,16.8-7.2,16.8-15.8h-15.3V67.3h28.8v37.1H858.3z"/>
		<path class="st0" d="M915.5,104.4V86.6c0-6.7-2.5-9.3-10.8-9.3h-15.4v27h-14v-69h35c12.8,0,21.2,8.5,21.2,20
			c0,7.4-3.6,13.6-10.3,16c6.1,2,8.4,5.4,8.4,13.5v19.5H915.5z M889.3,47.3v18.4h18.1c7.7,0,10.6-3.8,10.6-9.2
			c0-5.4-2.9-9.3-10.1-9.3H889.3z"/>
		<path class="st0" d="M983.3,104.4l-4.4-14.2h-25.5l-4.9,14.2h-15.3l24.6-69h16.7l24.3,69H983.3z M966.2,50.9h-0.1l-8.8,27.4h17.6
			L966.2,50.9z"/>
		<path class="st0" d="M1003.5,104.4v-57h-20.8V35.4h56.1v12.1h-20.9v57H1003.5z"/>
		<path class="st0" d="M1042.3,104.4v-69h14.5v69H1042.3z"/>
		<path class="st0" d="M1060.9,70.5c0-23.4,12-37.4,33.2-37.4c21.2,0,33,14,33,37.7c0,23.7-11.7,36-33,36
			C1072.8,106.8,1060.9,93.8,1060.9,70.5z M1112.8,70.8c0-16.3-6.7-25-18.7-25c-12.2,0-18.9,8.6-18.9,25c0,16.3,7,23.6,18.9,23.6
			C1104.4,94.4,1112.8,87.1,1112.8,70.8z"/>
		<path class="st0" d="M1174.3,104.4L1144.8,58v46.4h-13.4v-69h15.3l27.4,44.4V35.4h13.5v69H1174.3z"/>
		<path class="st0" d="M311.8,145.9c-0.7-7.1-5-10.5-13.7-10.5c-8.1,0-12.4,2.9-12.4,8.1c0,4.4,3,6.9,10.7,8.7
			c7.8,1.9,15.4,3.7,20.5,6c6,2.7,10.8,7,10.8,16.7c0,15.2-11.4,21.9-27.6,21.9c-17.1,0-28.9-7.6-29.2-23.1h13.9
			c0.2,7.1,6.1,11.4,15.4,11.4c8.5,0,13.4-3.6,13.4-9.8c0-4.1-2.1-6.9-10.7-8.7c-8.5-1.9-14-3.1-18.9-5.3
			c-7.4-3.3-11.5-8.3-11.5-17.1c0-12.4,8.4-21.2,25.3-21.2c17.5,0,27.2,9.5,27.8,22.7H311.8z"/>
		<path class="st0" d="M345.5,194.5v-26.1l-23.9-42.9h16.8l14.6,28.1l13.4-28.1H383l-23.1,43.1v25.9H345.5z"/>
		<path class="st0" d="M420.7,145.9c-0.7-7.1-5-10.5-13.7-10.5c-8.1,0-12.4,2.9-12.4,8.1c0,4.4,3,6.9,10.7,8.7
			c7.8,1.9,15.4,3.7,20.5,6c6,2.7,10.8,7,10.8,16.7c0,15.2-11.4,21.9-27.6,21.9c-17.1,0-28.9-7.6-29.2-23.1h13.9
			c0.2,7.1,6.1,11.4,15.4,11.4c8.5,0,13.4-3.6,13.4-9.8c0-4.1-2.1-6.9-10.7-8.7c-8.5-1.9-14-3.1-18.9-5.3
			c-7.4-3.3-11.5-8.3-11.5-17.1c0-12.4,8.4-21.2,25.3-21.2c17.5,0,27.2,9.5,27.8,22.7H420.7z"/>
		<path class="st0" d="M455.8,194.5v-57H435v-12.1h56.1v12.1h-20.9v57H455.8z"/>
		<path class="st0" d="M494.6,194.5v-69h50.7v12.1h-36.7v14.8h33.8v12.2h-33.8v17.8H547v12.3H494.6z"/>
		<path class="st0" d="M603.3,194.5v-47.3l-12.9,47.3h-14.3l-12.8-47.1v47.1h-13.4v-69h21.2l12.5,50.6l12.5-50.6h20.8v69H603.3z"/>
	</g>
</g>
</svg>
